<mxfile host="app.diagrams.net" agent="Mozilla/5.0 (Windows NT 10.0; Win64; x64) AppleWebKit/537.36 (KHTML, like Gecko) Chrome/132.0.0.0 Safari/537.36" version="26.0.14">
  <diagram name="Page-1" id="EBgY2XIy4IT2Nju40IQI">
    <mxGraphModel dx="2090" dy="922" grid="0" gridSize="10" guides="1" tooltips="1" connect="1" arrows="1" fold="1" page="0" pageScale="1" pageWidth="850" pageHeight="1100" math="0" shadow="0">
      <root>
        <mxCell id="0" />
        <mxCell id="1" parent="0" />
        <mxCell id="ttSGvFutvm-74A6iLGZ0-3" value="" style="edgeStyle=orthogonalEdgeStyle;rounded=0;orthogonalLoop=1;jettySize=auto;html=1;" edge="1" parent="1" source="ttSGvFutvm-74A6iLGZ0-1" target="ttSGvFutvm-74A6iLGZ0-2">
          <mxGeometry relative="1" as="geometry" />
        </mxCell>
        <mxCell id="ttSGvFutvm-74A6iLGZ0-1" value="Start" style="whiteSpace=wrap;html=1;aspect=fixed;" vertex="1" parent="1">
          <mxGeometry x="-229" y="-258" width="44" height="44" as="geometry" />
        </mxCell>
        <mxCell id="ttSGvFutvm-74A6iLGZ0-7" value="" style="edgeStyle=orthogonalEdgeStyle;rounded=0;orthogonalLoop=1;jettySize=auto;html=1;" edge="1" parent="1" source="ttSGvFutvm-74A6iLGZ0-2" target="ttSGvFutvm-74A6iLGZ0-4">
          <mxGeometry relative="1" as="geometry" />
        </mxCell>
        <mxCell id="ttSGvFutvm-74A6iLGZ0-9" value="" style="edgeStyle=orthogonalEdgeStyle;rounded=0;orthogonalLoop=1;jettySize=auto;html=1;" edge="1" parent="1" source="ttSGvFutvm-74A6iLGZ0-2" target="ttSGvFutvm-74A6iLGZ0-8">
          <mxGeometry relative="1" as="geometry" />
        </mxCell>
        <mxCell id="ttSGvFutvm-74A6iLGZ0-11" value="" style="edgeStyle=orthogonalEdgeStyle;rounded=0;orthogonalLoop=1;jettySize=auto;html=1;" edge="1" parent="1" source="ttSGvFutvm-74A6iLGZ0-2" target="ttSGvFutvm-74A6iLGZ0-10">
          <mxGeometry relative="1" as="geometry" />
        </mxCell>
        <mxCell id="ttSGvFutvm-74A6iLGZ0-2" value="Calculate Monthly and Yearly Average of Wardwise Groundwater Level" style="whiteSpace=wrap;html=1;aspect=fixed;" vertex="1" parent="1">
          <mxGeometry x="-268" y="-172" width="122" height="122" as="geometry" />
        </mxCell>
        <mxCell id="ttSGvFutvm-74A6iLGZ0-4" value="Calculate Max Level, Min Level and Change from 2021 to 2024" style="whiteSpace=wrap;html=1;aspect=fixed;" vertex="1" parent="1">
          <mxGeometry x="-247" width="80" height="80" as="geometry" />
        </mxCell>
        <mxCell id="ttSGvFutvm-74A6iLGZ0-13" value="" style="edgeStyle=orthogonalEdgeStyle;rounded=0;orthogonalLoop=1;jettySize=auto;html=1;" edge="1" parent="1" source="ttSGvFutvm-74A6iLGZ0-8" target="ttSGvFutvm-74A6iLGZ0-12">
          <mxGeometry relative="1" as="geometry" />
        </mxCell>
        <mxCell id="ttSGvFutvm-74A6iLGZ0-18" value="" style="edgeStyle=orthogonalEdgeStyle;rounded=0;orthogonalLoop=1;jettySize=auto;html=1;" edge="1" parent="1" source="ttSGvFutvm-74A6iLGZ0-8" target="ttSGvFutvm-74A6iLGZ0-17">
          <mxGeometry relative="1" as="geometry" />
        </mxCell>
        <mxCell id="ttSGvFutvm-74A6iLGZ0-20" value="" style="edgeStyle=orthogonalEdgeStyle;rounded=0;orthogonalLoop=1;jettySize=auto;html=1;" edge="1" parent="1" source="ttSGvFutvm-74A6iLGZ0-8" target="ttSGvFutvm-74A6iLGZ0-19">
          <mxGeometry relative="1" as="geometry" />
        </mxCell>
        <mxCell id="ttSGvFutvm-74A6iLGZ0-8" value="Identify Ward Based on Yearly Average Water Level" style="whiteSpace=wrap;html=1;aspect=fixed;" vertex="1" parent="1">
          <mxGeometry x="-523" y="-83" width="80" height="80" as="geometry" />
        </mxCell>
        <mxCell id="ttSGvFutvm-74A6iLGZ0-22" value="" style="edgeStyle=orthogonalEdgeStyle;rounded=0;orthogonalLoop=1;jettySize=auto;html=1;" edge="1" parent="1" source="ttSGvFutvm-74A6iLGZ0-10" target="ttSGvFutvm-74A6iLGZ0-21">
          <mxGeometry relative="1" as="geometry" />
        </mxCell>
        <mxCell id="ttSGvFutvm-74A6iLGZ0-10" value="Identify Wards with Significant Post Monsoon Rise" style="whiteSpace=wrap;html=1;aspect=fixed;" vertex="1" parent="1">
          <mxGeometry x="9" y="-252" width="80" height="80" as="geometry" />
        </mxCell>
        <mxCell id="ttSGvFutvm-74A6iLGZ0-12" value="Wards with Stable/Rising&lt;div&gt;Trend&lt;/div&gt;" style="whiteSpace=wrap;html=1;aspect=fixed;" vertex="1" parent="1">
          <mxGeometry x="-684" y="92" width="80" height="80" as="geometry" />
        </mxCell>
        <mxCell id="ttSGvFutvm-74A6iLGZ0-16" value="Declining" style="shape=ext;double=1;rounded=0;whiteSpace=wrap;html=1;" vertex="1" parent="1">
          <mxGeometry x="-778" width="81" height="15" as="geometry" />
        </mxCell>
        <mxCell id="ttSGvFutvm-74A6iLGZ0-17" value="Wards with Declining Trend" style="whiteSpace=wrap;html=1;aspect=fixed;" vertex="1" parent="1">
          <mxGeometry x="-778" y="92" width="80" height="80" as="geometry" />
        </mxCell>
        <mxCell id="ttSGvFutvm-74A6iLGZ0-19" value="Calculation of Std Deviation" style="whiteSpace=wrap;html=1;aspect=fixed;" vertex="1" parent="1">
          <mxGeometry x="-590" y="90" width="80" height="80" as="geometry" />
        </mxCell>
        <mxCell id="ttSGvFutvm-74A6iLGZ0-24" value="" style="edgeStyle=orthogonalEdgeStyle;rounded=0;orthogonalLoop=1;jettySize=auto;html=1;" edge="1" parent="1" source="ttSGvFutvm-74A6iLGZ0-21" target="ttSGvFutvm-74A6iLGZ0-23">
          <mxGeometry relative="1" as="geometry" />
        </mxCell>
        <mxCell id="ttSGvFutvm-74A6iLGZ0-21" value="Compute Mean Post Monsoon Rise" style="whiteSpace=wrap;html=1;aspect=fixed;" vertex="1" parent="1">
          <mxGeometry x="169" y="-252" width="80" height="80" as="geometry" />
        </mxCell>
        <mxCell id="ttSGvFutvm-74A6iLGZ0-26" value="" style="edgeStyle=orthogonalEdgeStyle;rounded=0;orthogonalLoop=1;jettySize=auto;html=1;" edge="1" parent="1" source="ttSGvFutvm-74A6iLGZ0-23" target="ttSGvFutvm-74A6iLGZ0-25">
          <mxGeometry relative="1" as="geometry" />
        </mxCell>
        <mxCell id="ttSGvFutvm-74A6iLGZ0-23" value="Flag wards with Signigficant Rise" style="whiteSpace=wrap;html=1;aspect=fixed;" vertex="1" parent="1">
          <mxGeometry x="169" y="-92" width="80" height="80" as="geometry" />
        </mxCell>
        <mxCell id="ttSGvFutvm-74A6iLGZ0-28" value="" style="edgeStyle=orthogonalEdgeStyle;rounded=0;orthogonalLoop=1;jettySize=auto;html=1;" edge="1" parent="1" source="ttSGvFutvm-74A6iLGZ0-25" target="ttSGvFutvm-74A6iLGZ0-27">
          <mxGeometry relative="1" as="geometry" />
        </mxCell>
        <mxCell id="ttSGvFutvm-74A6iLGZ0-25" value="Computer Overall Recharge Potential Score" style="whiteSpace=wrap;html=1;aspect=fixed;" vertex="1" parent="1">
          <mxGeometry x="169" y="68" width="80" height="80" as="geometry" />
        </mxCell>
        <mxCell id="ttSGvFutvm-74A6iLGZ0-30" value="" style="edgeStyle=orthogonalEdgeStyle;rounded=0;orthogonalLoop=1;jettySize=auto;html=1;" edge="1" parent="1" source="ttSGvFutvm-74A6iLGZ0-27" target="ttSGvFutvm-74A6iLGZ0-29">
          <mxGeometry relative="1" as="geometry" />
        </mxCell>
        <mxCell id="ttSGvFutvm-74A6iLGZ0-27" value="Rank Locations by Recharge Potential&amp;nbsp;" style="whiteSpace=wrap;html=1;aspect=fixed;" vertex="1" parent="1">
          <mxGeometry x="329" y="68" width="80" height="80" as="geometry" />
        </mxCell>
        <mxCell id="ttSGvFutvm-74A6iLGZ0-32" value="" style="edgeStyle=orthogonalEdgeStyle;rounded=0;orthogonalLoop=1;jettySize=auto;html=1;" edge="1" parent="1" source="ttSGvFutvm-74A6iLGZ0-29" target="ttSGvFutvm-74A6iLGZ0-31">
          <mxGeometry relative="1" as="geometry" />
        </mxCell>
        <mxCell id="ttSGvFutvm-74A6iLGZ0-29" value="Get Top 5 Wards per Area in Chennai" style="whiteSpace=wrap;html=1;aspect=fixed;" vertex="1" parent="1">
          <mxGeometry x="329" y="-92" width="80" height="80" as="geometry" />
        </mxCell>
        <mxCell id="ttSGvFutvm-74A6iLGZ0-31" value="Stop" style="whiteSpace=wrap;html=1;aspect=fixed;" vertex="1" parent="1">
          <mxGeometry x="329" y="-252" width="80" height="80" as="geometry" />
        </mxCell>
        <mxCell id="ttSGvFutvm-74A6iLGZ0-33" value="Stable/Rising" style="shape=ext;double=1;rounded=0;whiteSpace=wrap;html=1;" vertex="1" parent="1">
          <mxGeometry x="-678" width="81" height="15" as="geometry" />
        </mxCell>
        <mxCell id="ttSGvFutvm-74A6iLGZ0-34" value="Variability" style="shape=ext;double=1;rounded=0;whiteSpace=wrap;html=1;" vertex="1" parent="1">
          <mxGeometry x="-523" y="10" width="81" height="15" as="geometry" />
        </mxCell>
      </root>
    </mxGraphModel>
  </diagram>
</mxfile>
